<svg width="447" height="447" viewBox="0 0 447 447" fill="none" xmlns="http://www.w3.org/2000/svg">
<path d="M447 223.5C447 346.936 346.936 447 223.5 447C100.064 447 0 346.936 0 223.5C0 100.064 100.064 0 223.5 0C346.936 0 447 100.064 447 223.5ZM169.801 223.5C169.801 253.157 193.843 277.199 223.5 277.199C253.157 277.199 277.199 253.157 277.199 223.5C277.199 193.843 253.157 169.801 223.5 169.801C193.843 169.801 169.801 193.843 169.801 223.5Z" fill="white"/>
<path d="M238.87 282.242H205.657L222.054 434.013L238.87 282.242Z" fill="#141414"/>
<path d="M269.56 261.812L243.074 281.572L346.076 393.824L269.56 261.812Z" fill="#141414"/>
<path d="M174.125 261.052L201.032 280.391L97.6091 392.643L174.125 261.052Z" fill="#141414"/>
<path d="M155.967 225.906L171.102 255.335L29 310.831L155.967 225.906Z" fill="#141414"/>
<path d="M288.479 227.848L273.344 257.277L415.445 312.352L288.479 227.848Z" fill="#141414"/>
<path d="M206.328 162.771H239.541L222.724 11L206.328 162.771Z" fill="#141414"/>
<path d="M175.807 183.202L202.293 163.442L99.2905 51.1903L175.807 183.202Z" fill="#141414"/>
<path d="M271.243 184.385L244.336 164.626L347.759 52.3737L271.243 184.385Z" fill="#141414"/>
<path d="M288.9 219.11L273.765 189.68L415.867 134.605L288.9 219.11Z" fill="#141414"/>
<path d="M156.388 217.167L171.523 187.738L29.4219 132.663L156.388 217.167Z" fill="#141414"/>
</svg>
