<svg id="Calque_1" data-name="Calque 1" xmlns="http://www.w3.org/2000/svg" width="51.8809mm" height="46.7517mm" viewBox="0 0 147.0638 132.5245">
  <defs>
    <style>
      .cls-1 {
        stroke: #000;
      }
    </style>
  </defs>
  <g>
    <path class="cls-1" d="M75.1337,124.565c-33.75,1.4592-61.7548-23.4084-63.5022-55.3031C9.7339,34.6251,38.2233,8.3362,70.6209,7.1359,104.242,5.89,133.3662,31.9142,133.9717,64.4678,134.5718,96.7338,108.1787,123.542,75.1337,124.565Zm56.5429-61.21C130.3748,33.5391,105.7911,8.366,71.5927,9.1506c-33.829.776-58.5573,25.9047-57.9065,57.7256.6825,33.3636,27.2489,56.3877,60.39,55.78C107.3831,122.0454,132.8973,96.0251,131.6766,63.3552Z"/>
    <polygon points="77.017 81.639 69.104 81.639 73.061 117.701 77.017 81.639"/>
    <polygon points="84.382 76.308 78.011 81.001 102.584 107.691 84.382 76.308"/>
    <polygon points="61.658 76.947 68.029 81.64 43.456 108.329 61.658 76.947"/>
    <polygon points="56.425 68.221 60.074 75.243 26.249 88.36 56.425 68.221"/>
    <polygon points="88.877 66.877 85.228 73.899 119.052 87.016 88.877 66.877"/>
    <polygon points="69.694 50.08 77.607 50.08 73.651 14.018 69.694 50.08"/>
    <polygon points="62.01 55.411 68.381 50.718 43.808 24.029 62.01 55.411"/>
    <polygon points="84.734 54.772 78.363 50.079 102.936 23.39 84.734 54.772"/>
    <polygon points="88.967 63.498 85.319 56.476 119.143 43.359 88.967 63.498"/>
    <polygon points="56.516 64.842 60.164 57.82 26.34 44.703 56.516 64.842"/>
  </g>
</svg>
