<svg width="220" height="69" viewBox="0 0 220 69" fill="none" xmlns="http://www.w3.org/2000/svg">
<path d="M78.2552 46.153L78.2947 41.085C78.9038 41.6239 79.5029 42.029 80.0918 42.3001C80.6807 42.5713 81.2762 42.7087 81.8783 42.7123C82.7035 42.7173 83.352 42.5038 83.8237 42.0717C84.3066 41.6397 84.5509 41.0502 84.5568 40.3031C84.564 39.3776 83.9307 38.3701 82.6568 37.2808C82.3023 36.9776 82.0365 36.7418 81.8594 36.5735C80.3756 35.2264 79.3591 34.0215 78.8098 32.9588C78.2606 31.885 77.9913 30.6735 78.0018 29.3242C78.0183 27.2167 78.6226 25.5198 79.8147 24.2334C81.018 22.936 82.5786 22.293 84.4966 22.3046C85.1768 22.3087 85.8451 22.413 86.5014 22.6177C87.169 22.8113 87.8691 23.1166 88.6019 23.5336L88.5682 27.8489C87.7128 27.4312 87.0459 27.1428 86.5677 26.9838C86.1005 26.8249 85.683 26.7443 85.315 26.7421C84.6125 26.7379 84.0365 26.9574 83.587 27.4008C83.1376 27.833 82.9101 28.4059 82.9045 29.1196C82.8996 29.744 83.0623 30.3304 83.3926 30.8788C83.7229 31.4161 84.4972 32.218 85.7156 33.2847C87.3438 34.6996 88.3884 35.8768 88.8494 36.8163C89.3105 37.7446 89.5359 38.8666 89.5257 40.1824C89.5083 42.4014 88.8646 44.1539 87.5944 45.4398C86.3355 46.7146 84.6244 47.3455 82.4612 47.3325C81.636 47.3275 80.8729 47.2281 80.1719 47.0343C79.482 46.8406 78.8431 46.5468 78.2552 46.153ZM98.4039 34.2476C97.7014 34.2434 97.1858 34.586 96.857 35.2754C96.5282 35.9648 96.3577 37.09 96.3455 38.6511C96.3322 40.3572 96.4733 41.5735 96.7687 42.3002C97.0753 43.0268 97.5742 43.3923 98.2656 43.3964C98.9346 43.4004 99.4283 43.0187 99.7465 42.2512C100.076 41.4726 100.247 40.2581 100.26 38.6078C100.272 37.0801 100.13 35.9753 99.8343 35.2933C99.5386 34.6002 99.0618 34.2516 98.4039 34.2476ZM91.879 53.6952L92.0587 30.6801L96.3072 30.7056L96.2876 33.2146C96.8189 32.3033 97.3873 31.6321 97.9928 31.2009C98.5983 30.7696 99.2579 30.5561 99.9716 30.5604C101.522 30.5698 102.709 31.3073 103.534 32.7731C104.359 34.2389 104.761 36.3321 104.739 39.0529C104.718 41.7514 104.289 43.8397 103.453 45.3178C102.616 46.7959 101.45 47.5304 99.9562 47.5214C99.1645 47.5166 98.4583 47.2782 97.8375 46.8061C97.2168 46.3229 96.7037 45.6284 96.2981 44.7227L96.2279 53.7214L91.879 53.6952ZM107.347 26.3896C107.353 25.6425 107.603 25.0196 108.098 24.5207C108.604 24.0108 109.23 23.7581 109.977 23.7626C110.691 23.7669 111.297 24.027 111.794 24.543C112.303 25.059 112.555 25.685 112.549 26.4209C112.544 27.1346 112.288 27.7408 111.782 28.2396C111.277 28.7272 110.661 28.9688 109.937 28.9644C109.19 28.9599 108.567 28.7164 108.069 28.2339C107.582 27.7404 107.342 27.1256 107.347 26.3896ZM107.52 47.1822L107.648 30.7739L112.181 30.8012L112.052 47.2095L107.52 47.1822ZM123.092 47.2759L123.169 37.3406C123.177 36.404 123.07 35.7621 122.85 35.4151C122.63 35.0569 122.252 34.8762 121.717 34.873C121.137 34.8695 120.717 35.0733 120.457 35.4843C120.198 35.8954 120.064 36.5748 120.057 37.5226L119.981 47.2572L115.448 47.2299L115.576 30.8216L119.791 30.847L119.771 33.3893C120.369 32.4785 121.038 31.8023 121.777 31.3607C122.528 30.9192 123.372 30.7013 124.308 30.7069C125.591 30.7146 126.48 31.0824 126.976 31.8102C127.472 32.538 127.712 33.9668 127.695 36.0966L127.608 47.3031L123.092 47.2759ZM135.912 33.5199C135.968 33.5203 136.051 33.5264 136.163 33.5382C136.285 33.5501 136.374 33.5562 136.43 33.5565C137.467 33.5628 138.255 33.272 138.795 32.6842C139.346 32.0854 139.626 31.2284 139.635 30.1133C139.644 28.9537 139.394 28.0991 138.886 27.5496C138.377 26.989 137.576 26.7054 136.484 26.6988C136.428 26.6985 136.339 26.7035 136.216 26.7139C136.104 26.7244 136.021 26.7295 135.965 26.7291L135.912 33.5199ZM131.087 47.324L131.278 22.9039L136.346 22.9344C139.033 22.9506 141.024 23.548 142.32 24.7267C143.616 25.8942 144.254 27.6767 144.235 30.0741C144.217 32.36 143.574 34.1348 142.304 35.3984C141.034 36.6508 139.261 37.2702 136.987 37.2565C136.697 37.2548 136.474 37.2534 136.318 37.2525C136.173 37.2405 136.033 37.2285 135.9 37.2165L135.804 47.3524L131.087 47.324ZM146.353 26.6244C146.359 25.8773 146.609 25.2543 147.104 24.7555C147.61 24.2456 148.236 23.9929 148.983 23.9974C149.697 24.0017 150.302 24.2618 150.8 24.7777C151.309 25.2938 151.561 25.9197 151.555 26.6557C151.549 27.3693 151.294 27.9755 150.788 28.4743C150.282 28.9619 149.667 29.2035 148.942 29.1992C148.195 29.1947 147.573 28.9512 147.075 28.4687C146.588 27.9751 146.347 27.3603 146.353 26.6244ZM146.525 47.417L146.653 31.0086L151.186 31.0359L151.058 47.4442L146.525 47.417ZM163.21 35.7751C162.855 35.5053 162.511 35.3081 162.177 35.1834C161.843 35.0588 161.509 34.9954 161.175 34.9934C160.305 34.9882 159.611 35.3631 159.092 36.1183C158.573 36.8623 158.309 37.8755 158.299 39.1578C158.288 40.5071 158.537 41.5512 159.044 42.2902C159.562 43.0182 160.295 43.385 161.243 43.3907C161.6 43.3929 161.935 43.328 162.248 43.196C162.562 43.053 162.864 42.8373 163.157 42.5492L163.123 46.8645C162.652 47.1851 162.154 47.4218 161.629 47.5748C161.114 47.7278 160.573 47.8026 160.004 47.7992C158.086 47.7876 156.565 47.0146 155.439 45.4801C154.325 43.9457 153.778 41.8627 153.799 39.2311C153.819 36.633 154.404 34.5735 155.553 33.0527C156.702 31.5319 158.23 30.7772 160.137 30.7887C160.684 30.792 161.213 30.8509 161.725 30.9655C162.237 31.069 162.743 31.2281 163.243 31.443L163.21 35.7751ZM170.034 37.8903C170.148 37.5899 170.403 37.0339 170.8 36.2222C170.891 36.0443 170.959 35.9109 171.004 35.822L173.365 31.1694L178.467 31.2001L174.316 37.9997L178.657 47.6103L173.622 47.58L170.029 38.6095L169.959 47.558L165.426 47.5307L165.628 21.6052L170.161 21.6325L170.034 37.8903Z" fill="white"/>
<path d="M37.842 67.9806C18.9425 68.7634 3.28611 54.8963 2.33554 37.0592C1.27314 17.6565 17.2091 2.95064 35.3258 2.27965C54.1135 1.60866 70.385 16.1468 70.7764 34.3194C71.056 52.3801 56.2942 67.3655 37.842 67.9806ZM69.4344 33.7602C68.7075 17.0973 54.9522 3.00656 35.8291 3.45388C16.9295 3.84529 3.11836 17.9361 3.45385 35.7173C3.84526 54.3931 18.6629 67.2537 37.2269 66.9182C55.8469 66.5827 70.1613 51.9887 69.4344 33.7602Z" fill="white" stroke="white" stroke-width="0.559157"/>
<path d="M38.9044 43.9368H34.4871L36.6678 64.1223L38.9044 43.9368Z" fill="white"/>
<path d="M42.9862 40.9734L39.4635 43.6014L53.1629 58.5309L42.9862 40.9734Z" fill="white"/>
<path d="M30.2934 41.3647L33.872 43.9369L20.1167 58.8664L30.2934 41.3647Z" fill="white"/>
<path d="M27.3857 36.4441L29.3987 40.3582L10.4991 47.7391L27.3857 36.4441Z" fill="white"/>
<path d="M45.5023 35.7173L43.4894 39.6314L62.3889 46.9563L45.5023 35.7173Z" fill="white"/>
<path d="M34.8225 26.3233H39.2399L37.0032 6.1377L34.8225 26.3233Z" fill="white"/>
<path d="M30.517 29.2868L34.0397 26.6587L20.3403 11.7292L30.517 29.2868Z" fill="white"/>
<path d="M43.21 28.9516L39.6313 26.3235L53.3866 11.394L43.21 28.9516Z" fill="white"/>
<path d="M45.5584 33.8162L43.5454 29.9021L62.4449 22.5771L45.5584 33.8162Z" fill="white"/>
<path d="M27.4417 34.543L29.4547 30.6289L10.5552 23.304L27.4417 34.543Z" fill="white"/>
</svg>
