<svg width="358" height="358" viewBox="0 0 358 358" fill="none" xmlns="http://www.w3.org/2000/svg">
<g clip-path="url(#clip0_534_1581)">
<path d="M178.6 352.7C274.753 352.7 352.7 274.753 352.7 178.6C352.7 82.4472 274.753 4.5 178.6 4.5C82.4472 4.5 4.5 82.4472 4.5 178.6C4.5 274.753 82.4472 352.7 178.6 352.7Z" fill="#3356AE" stroke="#1D1D1B" stroke-width="9" stroke-miterlimit="10"/>
<path d="M178.6 154C183.6 154 188.1 155.6 191.8 158.4C192.1 158.6 192.4 158.4 192.4 158.1L178.8 35.4C178.8 35 178.1 35 178.1 35.4L164.8 158.1C164.8 158.4 165.1 158.6 165.4 158.4C169.1 155.6 173.7 154 178.6 154Z" fill="white" stroke="#1D1C2D" stroke-width="6" stroke-miterlimit="10"/>
<path d="M163 160.3C166.5 156.8 170.9 154.7 175.5 154.1C175.8 154.1 175.9 153.7 175.7 153.5L79.3 76.3C79 76 78.5 76.5 78.8 76.8L156.2 172.9C156.4 173.1 156.8 173 156.8 172.7C157.5 168.2 159.5 163.8 163 160.3Z" fill="white" stroke="#1D1C2D" stroke-width="6" stroke-miterlimit="10"/>
<path d="M156.5 175.8C156.5 170.8 158.1 166.3 160.9 162.6C161.1 162.3 160.9 162 160.6 162L37.9 175.6C37.5 175.6 37.5 176.3 37.9 176.3L160.6 189.6C160.9 189.6 161.1 189.3 160.9 189C158.1 185.3 156.5 180.8 156.5 175.8Z" fill="white" stroke="#1D1C2D" stroke-width="6" stroke-miterlimit="10"/>
<path d="M162.8 191.4C159.3 187.9 157.2 183.5 156.6 178.9C156.6 178.6 156.2 178.5 156 178.7L78.8 275.1C78.5 275.4 79 275.9 79.3 275.6L175.4 198.2C175.6 198 175.5 197.6 175.2 197.6C170.7 197 166.3 194.9 162.8 191.4Z" fill="white" stroke="#1D1C2D" stroke-width="6" stroke-miterlimit="10"/>
<path d="M178.3 198C173.3 198 168.8 196.4 165.1 193.6C164.8 193.4 164.5 193.6 164.5 193.9L178.1 316.6C178.1 317 178.8 317 178.8 316.6L192.1 193.9C192.1 193.6 191.8 193.4 191.5 193.6C187.9 196.3 183.3 198 178.3 198Z" fill="white" stroke="#1D1C2D" stroke-width="6" stroke-miterlimit="10"/>
<path d="M193.9 191.6C190.4 195.1 186 197.2 181.4 197.8C181.1 197.8 181 198.2 181.2 198.4L277.6 275.6C277.9 275.9 278.4 275.4 278.1 275.1L200.8 179C200.6 178.8 200.2 178.9 200.2 179.2C199.5 183.7 197.4 188.1 193.9 191.6Z" fill="white" stroke="#1D1C2D" stroke-width="6" stroke-miterlimit="10"/>
<path d="M200.5 176.1C200.5 181.1 198.9 185.6 196.1 189.3C195.9 189.6 196.1 189.9 196.4 189.9L319.1 176.3C319.5 176.3 319.5 175.6 319.1 175.6L196.4 162.3C196.1 162.3 195.9 162.6 196.1 162.9C198.8 166.6 200.5 171.1 200.5 176.1Z" fill="white" stroke="#1D1C2D" stroke-width="6" stroke-miterlimit="10"/>
<path d="M194.1 160.5C197.6 164 199.7 168.4 200.3 173C200.3 173.3 200.7 173.4 200.9 173.2L278.1 76.8C278.4 76.5 277.9 76 277.6 76.3L181.5 153.7C181.3 153.9 181.4 154.3 181.7 154.3C186.2 154.9 190.6 157 194.1 160.5Z" fill="white" stroke="#1D1C2D" stroke-width="6" stroke-miterlimit="10"/>
</g>
<defs>
<clipPath id="clip0_534_1581">
<rect width="357.3" height="357.3" fill="white"/>
</clipPath>
</defs>
</svg>
